{"asset":{"generator":"Khronos glTF Spline I/O v0.0.1","version":"2.0"},"scenes":[{"nodes":[0]}],"nodes":[{"name":"Untitled","children":[1,2]},{"name":"Empty Object 6","matrix":[1,0,0,0,0,1,0,0,0,0,1,0,-70.03690288997886,140.49346287453764,7.238558695873849,1],"children":[3,4,5,6]},{"name":"Default Camera","camera":0,"translation":[720.6831859661027,879.1500539974807,913.4484164743122],"rotation":[-0.28112232724155106,0.3423634749214543,0.10814416362375204,0.8899788357259516],"children":[7]},{"name":"FAN","matrix":[1,0,0,0,0,0.9135454576425988,-0.40673664307579943,0,0,0.40673664307579943,0.9135454576425988,0,-1.1996183841906856,92.96920333527808,34.530445531245746,1],"children":[8,9]},{"name":"Empty Object 3","matrix":[5.818903586095554,0,0,0,0,5.795798378896305,0,0,0,0,5.788815560143353,0,45.75359666464824,78.43130168283491,-74.87611630966386,1]},{"name":"Empty Object 4","matrix":[1,0,0,0,0,1,0,0,0,0,1,0,-4.263256414560601e-14,60.94549480230441,-23.906769655766027,1],"children":[10]},{"name":"Empty Object 5","matrix":[0.9998476956182719,0.009370683086755172,-0.01472331027041703,0,-0.009371142042703355,0.9999560891691511,0.000037819998120535724,0,0.01472301815684694,0.00010015999391376614,0.9998916054774781,0,-8.878223524252576,188.80734371585257,-72.74824216474127,1],"children":[11,12,13,14]},{"name":"Default Directional Light","translation":[850000,1300000,1000000],"rotation":[-0.45895513091666534,0.1367267597249462,-0.25064115022945466,0.8413352451859125],"extensions":{"KHR_lights_punctual":{"light":0}}},{"name":"Cube copy","matrix":[0.9995539465714457,0.021989832258330847,-0.02020779974904485,0,-0.024234714832134907,0.2018200212051509,-0.9791227490145317,0,-0.017452406437283637,0.9791757382196606,0.2022629160067284,0,-0.49181044624549486,5.636360296207485,-27.415442645578082,1],"mesh":0},{"name":"Cube","matrix":[0.9995539465714457,0.021989832258330847,-0.02020779974904485,0,-0.024234714832134907,0.2018200212051509,-0.9791227490145317,0,-0.017452406437283637,0.9791757382196606,0.2022629160067284,0,-4.263256414560601e-14,-1.2850188352388159,8.337227120199424,1],"mesh":1},{"name":"Empty Object","matrix":[5.771699248745461,0,0,0,0,6.218421052631578,0,0,0,0,3.7097056251821603,0,5.684341886080802e-14,-81.35631516407886,-5.684341886080802e-14,1],"children":[15,16,17,18]},{"name":"Ellipse","matrix":[5.818903586095554,0,0,0,0,1.1058904660822144,-5.682458713801565,0,0,5.68931323850655,1.1045580814510667,0,-65.86888022091006,0.6108208714483112,0.41189475087480787,1],"mesh":2},{"name":"Ellipse copy 4","matrix":[5.818903586095554,0,0,0,0,1.1058904660822144,-5.682458713801565,0,0,5.68931323850655,1.1045580814510667,0,-19.019385035213304,1.6936357717675037,0.10843624290123444,1],"mesh":3},{"name":"Ellipse copy 2","matrix":[5.818903586095554,0,0,0,0,1.1058904660822144,-5.682458713801565,0,0,5.68931323850655,1.1045580814510667,0,23.917496814352432,1.857140704380356,0.45068138262996627,1],"mesh":4},{"name":"Ellipse copy 2","matrix":[5.818903586095554,0,0,0,0,1.1058904660822144,-5.682458713801565,0,0,5.689313238506551,1.104558081451067,0,65.86888022091003,2.3356784477182373,-0.3036745170671793,1],"mesh":5},{"name":"Rectangle copy 4","matrix":[0.9996956916941181,0.018330891521889506,-0.016507647446724037,0,-0.018616150255698977,0.12154994236056374,-0.9924107266962685,0,-0.016185269780571256,0.9924160367145392,0.12185420433441815,0,-0.8178426573880699,30.19070592856417,0.13437829853495487,1],"mesh":6},{"name":"Rectangle copy 3","matrix":[0.9996956916941181,0.01833086711997407,-0.016507674543752928,0,-0.018330843019338062,0.10420991176862134,-0.9943863808818938,0,-0.016507701306148606,0.9943863804376291,0.10451422007450145,0,-0.4092711838647647,28.71260422343785,0.14413831507517827,1],"mesh":7},{"name":"Rectangle copy 2","matrix":[0.9996956916941181,0.01803996880574437,-0.01682508643961104,0,-0.018330843019338103,0.08683914371204488,-0.9960536849555756,0,-0.016507701306148558,0.996058995564463,0.08714340567559052,0,0.008253850653073769,27.231728742459012,0.07799773454184944,1],"mesh":8},{"name":"Rectangle copy","matrix":[0.9996956916941181,0.018039962568924293,-0.016825093126768213,0,-0.018039952030618592,0.06944192153335671,-0.9974228690302344,0,-0.016825104425994285,0.9974228688396435,0.06974622983923627,0,2.0936607434024026,-84.94981570440862,-6.811572637904781,1],"mesh":9}],"cameras":[{"type":"perspective","perspective":{"aspectRatio":1.5926940639269407,"yfov":0.7853981633974483,"znear":50,"zfar":50000}}],"meshes":[{"primitives":[{"attributes":{"POSITION":1,"NORMAL":2,"TEXCOORD_0":3},"indices":0}]},{"primitives":[{"attributes":{"POSITION":5,"NORMAL":6,"TEXCOORD_0":7},"indices":4}]},{"primitives":[{"attributes":{"POSITION":9,"NORMAL":10,"TEXCOORD_0":11},"indices":8}]},{"primitives":[{"attributes":{"POSITION":13,"NORMAL":14,"TEXCOORD_0":15},"indices":12}]},{"primitives":[{"attributes":{"POSITION":17,"NORMAL":18,"TEXCOORD_0":19},"indices":16}]},{"primitives":[{"attributes":{"POSITION":21,"NORMAL":22,"TEXCOORD_0":23},"indices":20}]},{"primitives":[{"attributes":{"POSITION":24,"TEXCOORD_0":25,"NORMAL":26}}]},{"primitives":[{"attributes":{"POSITION":27,"TEXCOORD_0":28,"NORMAL":29}}]},{"primitives":[{"attributes":{"POSITION":30,"TEXCOORD_0":31,"NORMAL":32}}]},{"primitives":[{"attributes":{"POSITION":33,"TEXCOORD_0":34,"NORMAL":35}}]}],"buffers":[{"uri":"data:application/octet-stream;base64,","byteLength":840},{"uri":"data:application/octet-stream;base64,","byteLength":840},{"uri":"data:application/octet-stream;base64,","byteLength":9792},{"uri":"data:application/octet-stream;base64,","byteLength":9792},{"uri":"data:application/octet-stream;base64,","byteLength":9792},{"uri":"data:application/octet-stream;base64,","byteLength":9792},{"uri":"data:application/octet-stream;base64,","byteLength":199296},{"uri":"data:application/octet-stream;base64,","byteLength":199296},{"uri":"data:application/octet-stream;base64,","byteLength":199296},{"uri":"data:application/octet-stream;base64,","byteLength":1097856}],"bufferViews":[{"buffer":0,"byteOffset":0,"byteLength":72,"target":34963},{"buffer":0,"byteOffset":72,"byteLength":288,"target":34962},{"buffer":0,"byteOffset":360,"byteLength":288,"target":34962},{"buffer":0,"byteOffset":648,"byteLength":192,"target":34962},{"buffer":1,"byteOffset":0,"byteLength":72,"target":34963},{"buffer":1,"byteOffset":72,"byteLength":288,"target":34962},{"buffer":1,"byteOffset":360,"byteLength":288,"target":34962},{"buffer":1,"byteOffset":648,"byteLength":192,"target":34962},{"buffer":2,"byteOffset":0,"byteLength":1536,"target":34963},{"buffer":2,"byteOffset":1536,"byteLength":3096,"target":34962},{"buffer":2,"byteOffset":4632,"byteLength":3096,"target":34962},{"buffer":2,"byteOffset":7728,"byteLength":2064,"target":34962},{"buffer":3,"byteOffset":0,"byteLength":1536,"target":34963},{"buffer":3,"byteOffset":1536,"byteLength":3096,"target":34962},{"buffer":3,"byteOffset":4632,"byteLength":3096,"target":34962},{"buffer":3,"byteOffset":7728,"byteLength":2064,"target":34962},{"buffer":4,"byteOffset":0,"byteLength":1536,"target":34963},{"buffer":4,"byteOffset":1536,"byteLength":3096,"target":34962},{"buffer":4,"byteOffset":4632,"byteLength":3096,"target":34962},{"buffer":4,"byteOffset":7728,"byteLength":2064,"target":34962},{"buffer":5,"byteOffset":0,"byteLength":1536,"target":34963},{"buffer":5,"byteOffset":1536,"byteLength":3096,"target":34962},{"buffer":5,"byteOffset":4632,"byteLength":3096,"target":34962},{"buffer":5,"byteOffset":7728,"byteLength":2064,"target":34962},{"buffer":6,"byteOffset":0,"byteLength":74736,"target":34962},{"buffer":6,"byteOffset":74736,"byteLength":49824,"target":34962},{"buffer":6,"byteOffset":124560,"byteLength":74736,"target":34962},{"buffer":7,"byteOffset":0,"byteLength":74736,"target":34962},{"buffer":7,"byteOffset":74736,"byteLength":49824,"target":34962},{"buffer":7,"byteOffset":124560,"byteLength":74736,"target":34962},{"buffer":8,"byteOffset":0,"byteLength":74736,"target":34962},{"buffer":8,"byteOffset":74736,"byteLength":49824,"target":34962},{"buffer":8,"byteOffset":124560,"byteLength":74736,"target":34962},{"buffer":9,"byteOffset":0,"byteLength":411696,"target":34962},{"buffer":9,"byteOffset":411696,"byteLength":274464,"target":34962},{"buffer":9,"byteOffset":686160,"byteLength":411696,"target":34962}],"accessors":[{"bufferView":0,"byteOffset":0,"componentType":5123,"count":36,"type":"SCALAR","min":[0],"max":[23]},{"bufferView":1,"byteOffset":0,"componentType":5126,"count":24,"type":"VEC3","min":[-172,-30.5,-108.5],"max":[172,30.5,108.5]},{"bufferView":2,"byteOffset":0,"componentType":5126,"count":24,"type":"VEC3","min":[-1,-1,-1],"max":[1,1,1]},{"bufferView":3,"byteOffset":0,"componentType":5126,"count":24,"type":"VEC2","min":[0,0],"max":[1,1]},{"bufferView":4,"byteOffset":0,"componentType":5123,"count":36,"type":"SCALAR","min":[0],"max":[23]},{"bufferView":5,"byteOffset":0,"componentType":5126,"count":24,"type":"VEC3","min":[-195.5,-49.5,-108.5],"max":[195.5,49.5,108.5]},{"bufferView":6,"byteOffset":0,"componentType":5126,"count":24,"type":"VEC3","min":[-1,-1,-1],"max":[1,1,1]},{"bufferView":7,"byteOffset":0,"componentType":5126,"count":24,"type":"VEC2","min":[0,0],"max":[1,1]},{"bufferView":8,"byteOffset":0,"componentType":5123,"count":768,"type":"SCALAR","min":[0],"max":[257]},{"bufferView":9,"byteOffset":0,"componentType":5126,"count":258,"type":"VEC3","min":[-2.5,-2.5,0],"max":[2.5,2.5,0]},{"bufferView":10,"byteOffset":0,"componentType":5126,"count":258,"type":"VEC3","min":[0,0,1],"max":[0,0,1]},{"bufferView":11,"byteOffset":0,"componentType":5126,"count":258,"type":"VEC2","min":[0,0],"max":[1,1]},{"bufferView":12,"byteOffset":0,"componentType":5123,"count":768,"type":"SCALAR","min":[0],"max":[257]},{"bufferView":13,"byteOffset":0,"componentType":5126,"count":258,"type":"VEC3","min":[-2.5,-2.5,0],"max":[2.5,2.5,0]},{"bufferView":14,"byteOffset":0,"componentType":5126,"count":258,"type":"VEC3","min":[0,0,1],"max":[0,0,1]},{"bufferView":15,"byteOffset":0,"componentType":5126,"count":258,"type":"VEC2","min":[0,0],"max":[1,1]},{"bufferView":16,"byteOffset":0,"componentType":5123,"count":768,"type":"SCALAR","min":[0],"max":[257]},{"bufferView":17,"byteOffset":0,"componentType":5126,"count":258,"type":"VEC3","min":[-2.5,-2.5,0],"max":[2.5,2.5,0]},{"bufferView":18,"byteOffset":0,"componentType":5126,"count":258,"type":"VEC3","min":[0,0,1],"max":[0,0,1]},{"bufferView":19,"byteOffset":0,"componentType":5126,"count":258,"type":"VEC2","min":[0,0],"max":[1,1]},{"bufferView":20,"byteOffset":0,"componentType":5123,"count":768,"type":"SCALAR","min":[0],"max":[257]},{"bufferView":21,"byteOffset":0,"componentType":5126,"count":258,"type":"VEC3","min":[-2.5,-2.5,0],"max":[2.5,2.5,0]},{"bufferView":22,"byteOffset":0,"componentType":5126,"count":258,"type":"VEC3","min":[0,0,1],"max":[0,0,1]},{"bufferView":23,"byteOffset":0,"componentType":5126,"count":258,"type":"VEC2","min":[0,0],"max":[1,1]},{"bufferView":24,"byteOffset":0,"componentType":5126,"count":6228,"type":"VEC3","min":[-35,-35,-1],"max":[35,35,2]},{"bufferView":25,"byteOffset":0,"componentType":5126,"count":6228,"type":"VEC2","min":[-0.014569451101124287,0],"max":[1.0145694017410278,1]},{"bufferView":26,"byteOffset":0,"componentType":5126,"count":6228,"type":"VEC3","min":[-1,-1,-1],"max":[1,1,1]},{"bufferView":27,"byteOffset":0,"componentType":5126,"count":6228,"type":"VEC3","min":[-36,-36,-1],"max":[36,36,2]},{"bufferView":28,"byteOffset":0,"componentType":5126,"count":6228,"type":"VEC2","min":[-0.014139230363070965,0],"max":[1.014139175415039,1]},{"bufferView":29,"byteOffset":0,"componentType":5126,"count":6228,"type":"VEC3","min":[-1,-1,-1],"max":[1,1,1]},{"bufferView":30,"byteOffset":0,"componentType":5126,"count":6228,"type":"VEC3","min":[-37,-37,-1],"max":[37,37,2]},{"bufferView":31,"byteOffset":0,"componentType":5126,"count":6228,"type":"VEC2","min":[-0.01373291015625,0],"max":[1.01373291015625,1]},{"bufferView":32,"byteOffset":0,"componentType":5126,"count":6228,"type":"VEC3","min":[-1,-1,-1],"max":[1,1,1]},{"bufferView":33,"byteOffset":0,"componentType":5126,"count":34308,"type":"VEC3","min":[-40,-40,-7],"max":[40,40,113]},{"bufferView":34,"byteOffset":0,"componentType":5126,"count":34308,"type":"VEC2","min":[-0.10600540786981583,-1.196969747543335],"max":[1.1060054302215576,1]},{"bufferView":35,"byteOffset":0,"componentType":5126,"count":34308,"type":"VEC3","min":[-1,-1,-1],"max":[1,1,1]}],"extensions":{"KHR_lights_punctual":{"lights":[{"type":"directional","name":"Default Directional Light","color":[1,1,1],"intensity":0.75}]}},"extensionsUsed":["KHR_lights_punctual"]}